<svg width="35" height="34" viewBox="0 0 35 34" fill="none" xmlns="http://www.w3.org/2000/svg">
    <path fill-rule="evenodd" clip-rule="evenodd"
          d="M17.0299 0.709473C12.9871 0.71157 9.07692 2.14343 5.99848 4.74902C2.92005 7.35462 0.874099 10.964 0.226473 14.9319C-0.421154 18.8997 0.371765 22.9672 2.46346 26.4071C4.55516 29.847 7.80924 32.4349 11.6438 33.7082C12.4898 33.8652 12.8084 33.3409 12.8084 32.8951C12.8084 32.4492 12.7915 31.1567 12.7859 29.7435C8.04844 30.7669 7.04738 27.7444 7.04738 27.7444C6.27472 25.7816 5.15804 25.2657 5.15804 25.2657C3.61273 24.2171 5.27366 24.2367 5.27366 24.2367C6.98535 24.3573 7.8849 25.9835 7.8849 25.9835C9.40201 28.5715 11.8694 27.8229 12.8395 27.3855C12.9917 26.2891 13.4345 25.5433 13.9223 25.1199C10.138 24.6937 6.16192 23.2413 6.16192 16.7532C6.13847 15.0705 6.76644 13.4433 7.91591 12.2081C7.74108 11.7819 7.15735 10.0604 8.08228 7.72194C8.08228 7.72194 9.51198 7.26772 12.7662 9.45754C15.5574 8.69857 18.5023 8.69857 21.2935 9.45754C24.5449 7.26772 25.9718 7.72194 25.9718 7.72194C26.8995 10.0548 26.3158 11.7763 26.141 12.2081C27.2941 13.4435 27.9234 15.0736 27.8978 16.7588C27.8978 23.261 23.9132 24.6937 20.1233 25.1115C20.7324 25.6387 21.2766 26.6677 21.2766 28.249C21.2766 30.5146 21.2569 32.3371 21.2569 32.8951C21.2569 33.3465 21.5642 33.8736 22.4271 33.7082C26.2622 32.4348 29.5166 29.8464 31.6082 26.4059C33.6999 22.9654 34.4924 18.8973 33.844 14.9291C33.1957 10.9609 31.1487 7.35145 28.0693 4.7463C24.9898 2.14116 21.0787 0.710241 17.0355 0.709473H17.0299Z"
          fill="#F2F2F2"/>
    <path d="M6.44915 25.0218C6.41249 25.1059 6.27714 25.1312 6.16716 25.0723C6.05718 25.0134 5.97541 24.904 6.01489 24.8171C6.05437 24.7302 6.18691 24.7078 6.29688 24.7666C6.40686 24.8255 6.49145 24.9377 6.44915 25.0218Z"
          fill="#F2F2F2"/>
    <path d="M7.14005 25.7872C7.08165 25.8165 7.01484 25.8247 6.95106 25.8104C6.88727 25.796 6.83048 25.7601 6.79039 25.7087C6.68041 25.591 6.65784 25.4284 6.74244 25.3555C6.82703 25.2826 6.97932 25.3162 7.0893 25.434C7.19927 25.5517 7.22465 25.7143 7.14005 25.7872Z"
          fill="#F2F2F2"/>
    <path d="M7.81123 26.7603C7.70689 26.8332 7.52923 26.7603 7.43053 26.6145C7.40324 26.5883 7.38154 26.5569 7.36671 26.5223C7.35189 26.4876 7.34424 26.4503 7.34424 26.4126C7.34424 26.3749 7.35189 26.3376 7.36671 26.3029C7.38154 26.2682 7.40324 26.2369 7.43053 26.2107C7.53487 26.1406 7.71253 26.2107 7.81123 26.3537C7.90993 26.4967 7.91275 26.6874 7.81123 26.7603Z"
          fill="#F2F2F2"/>
    <path d="M8.72203 27.7023C8.62898 27.8061 8.44005 27.778 8.28495 27.6378C8.12986 27.4976 8.09319 27.307 8.18625 27.206C8.2793 27.1051 8.46824 27.1331 8.62897 27.2705C8.78971 27.4079 8.82073 27.6014 8.72203 27.7023Z"
          fill="#F2F2F2"/>
    <path d="M9.99941 28.2519C9.95711 28.3837 9.76536 28.4426 9.5736 28.3865C9.38185 28.3304 9.25495 28.1734 9.29161 28.0388C9.32827 27.9042 9.52285 27.8425 9.71742 27.9042C9.91199 27.9659 10.0361 28.1145 9.99941 28.2519Z"
          fill="#F2F2F2"/>
    <path d="M11.3925 28.3472C11.3925 28.4846 11.2346 28.6024 11.0316 28.6052C10.8285 28.608 10.6622 28.4958 10.6622 28.3584C10.6622 28.221 10.8201 28.1033 11.0231 28.1005C11.2261 28.0977 11.3925 28.207 11.3925 28.3472Z"
          fill="#F2F2F2"/>
    <path d="M12.6897 28.1313C12.715 28.2687 12.574 28.4117 12.371 28.4454C12.168 28.479 11.9903 28.3977 11.9649 28.2631C11.9396 28.1285 12.0862 27.9827 12.2836 27.9463C12.481 27.9098 12.6643 27.9939 12.6897 28.1313Z"
          fill="#F2F2F2"/>
</svg>
