<svg width="35" height="34" viewBox="0 0 35 34" fill="none" xmlns="http://www.w3.org/2000/svg">
    <path fill-rule="evenodd" clip-rule="evenodd"
          d="M17.0648 0.709473C13.0221 0.71157 9.11189 2.14343 6.03346 4.74902C2.95502 7.35462 0.909072 10.964 0.261446 14.9319C-0.386181 18.8997 0.406738 22.9672 2.49844 26.4071C4.59014 29.847 7.84421 32.4349 11.6788 33.7082C12.5248 33.8652 12.8434 33.3409 12.8434 32.8951C12.8434 32.4492 12.8265 31.1567 12.8209 29.7435C8.08341 30.7669 7.08235 27.7444 7.08235 27.7444C6.3097 25.7816 5.19301 25.2657 5.19301 25.2657C3.6477 24.2171 5.30864 24.2367 5.30864 24.2367C7.02032 24.3573 7.91987 25.9835 7.91987 25.9835C9.43698 28.5715 11.9044 27.8229 12.8744 27.3855C13.0267 26.2891 13.4694 25.5433 13.9573 25.1199C10.173 24.6937 6.1969 23.2413 6.1969 16.7532C6.17344 15.0705 6.80142 13.4433 7.95089 12.2081C7.77605 11.7819 7.19232 10.0604 8.11725 7.72194C8.11725 7.72194 9.54696 7.26772 12.8011 9.45754C15.5923 8.69857 18.5373 8.69857 21.3285 9.45754C24.5799 7.26772 26.0067 7.72194 26.0067 7.72194C26.9345 10.0548 26.3508 11.7763 26.1759 12.2081C27.329 13.4435 27.9583 15.0736 27.9327 16.7588C27.9327 23.261 23.9482 24.6937 20.1583 25.1115C20.7673 25.6387 21.3116 26.6677 21.3116 28.249C21.3116 30.5146 21.2919 32.3371 21.2919 32.8951C21.2919 33.3465 21.5992 33.8736 22.4621 33.7082C26.2971 32.4348 29.5515 29.8464 31.6432 26.4059C33.7349 22.9654 34.5274 18.8973 33.879 14.9291C33.2306 10.9609 31.1837 7.35145 28.1042 4.7463C25.0248 2.14116 21.1137 0.710241 17.0705 0.709473H17.0648Z"
          fill="#333333"/>
    <path d="M6.48412 25.0218C6.44746 25.1059 6.31211 25.1312 6.20213 25.0723C6.09216 25.0134 6.01039 24.904 6.04986 24.8171C6.08934 24.7302 6.22188 24.7078 6.33185 24.7666C6.44183 24.8255 6.52642 24.9377 6.48412 25.0218Z"
          fill="#333333"/>
    <path d="M7.17503 25.7872C7.11663 25.8165 7.04981 25.8247 6.98603 25.8104C6.92224 25.796 6.86545 25.7601 6.82536 25.7087C6.71538 25.591 6.69281 25.4284 6.77741 25.3555C6.86201 25.2826 7.01429 25.3162 7.12427 25.434C7.23425 25.5517 7.25962 25.7143 7.17503 25.7872Z"
          fill="#333333"/>
    <path d="M7.8462 26.7603C7.74187 26.8332 7.5642 26.7603 7.46551 26.6145C7.43822 26.5883 7.41651 26.5569 7.40169 26.5223C7.38686 26.4876 7.37921 26.4503 7.37921 26.4126C7.37921 26.3749 7.38686 26.3376 7.40169 26.3029C7.41651 26.2682 7.43822 26.2369 7.46551 26.2107C7.56984 26.1406 7.74751 26.2107 7.8462 26.3537C7.9449 26.4967 7.94772 26.6874 7.8462 26.7603Z"
          fill="#333333"/>
    <path d="M8.75701 27.7023C8.66395 27.8061 8.47502 27.778 8.31993 27.6378C8.16483 27.4976 8.12816 27.307 8.22122 27.206C8.31428 27.1051 8.50321 27.1331 8.66395 27.2705C8.82468 27.4079 8.8557 27.6014 8.75701 27.7023Z"
          fill="#333333"/>
    <path d="M10.0344 28.2519C9.99208 28.3837 9.80033 28.4426 9.60857 28.3865C9.41682 28.3304 9.28993 28.1734 9.32658 28.0388C9.36324 27.9042 9.55782 27.8425 9.75239 27.9042C9.94697 27.9659 10.071 28.1145 10.0344 28.2519Z"
          fill="#333333"/>
    <path d="M11.4275 28.3472C11.4275 28.4846 11.2696 28.6024 11.0665 28.6052C10.8635 28.608 10.6971 28.4958 10.6971 28.3584C10.6971 28.221 10.855 28.1033 11.0581 28.1005C11.2611 28.0977 11.4275 28.207 11.4275 28.3472Z"
          fill="#333333"/>
    <path d="M12.7246 28.1313C12.75 28.2687 12.609 28.4117 12.406 28.4454C12.203 28.479 12.0253 28.3977 11.9999 28.2631C11.9745 28.1285 12.1212 27.9827 12.3186 27.9463C12.516 27.9098 12.6993 27.9939 12.7246 28.1313Z"
          fill="#333333"/>
</svg>
