<svg width="32" height="32" viewBox="0 0 32 32" fill="none" xmlns="http://www.w3.org/2000/svg">
    <path d="M32 16.0393C32 21.5417 29.4275 24.1173 26.1924 24.1173C24.3216 24.1173 22.6845 23.1417 21.7491 21.6588C20.268 23.1417 18.2801 24.0783 16.0195 24.0783C11.5761 24.0783 7.99026 20.488 7.99026 16.0393C7.99026 11.5905 11.5761 8.00024 16.0195 8.00024C20.4628 8.00024 24.0487 11.5905 24.0487 16.0393V18.6539C24.0487 19.9807 24.9842 20.9173 26.1924 20.9173C27.6346 20.9173 28.8039 19.7076 28.8039 16.0393C28.8039 8.97585 23.0743 3.23927 16.0195 3.23927C8.96468 3.23927 3.1961 8.97585 3.1961 16.0393C3.1961 23.1027 8.9257 28.8393 15.9805 28.8393C20.0731 28.8393 22.8794 26.81 22.8794 26.81L24.9842 29.2295C24.9842 29.2295 21.3983 32.0002 15.9805 32.0002C7.17174 32.0002 0 24.8198 0 16.0002C0 7.18073 7.17174 0.000244141 15.9805 0.000244141C24.8283 0.0392685 32 7.21976 32 16.0393ZM16.0195 20.9173C18.7089 20.9173 20.8916 18.732 20.8916 16.0393C20.8916 13.3466 18.7089 11.1612 16.0195 11.1612C13.3301 11.1612 11.1474 13.3466 11.1474 16.0393C11.1474 18.732 13.3301 20.9173 16.0195 20.9173Z"
          fill="#F2F2F2"/>
</svg>
