<svg width="34" height="32" viewBox="0 0 34 32" fill="none" xmlns="http://www.w3.org/2000/svg">
    <path d="M33.6252 16.0393C33.6252 21.5417 30.9221 24.1173 27.5227 24.1173C25.5568 24.1173 23.8366 23.1417 22.8537 21.6588C21.2973 23.1417 19.2086 24.0783 16.8331 24.0783C12.1641 24.0783 8.39607 20.488 8.39607 16.0393C8.39607 11.5905 12.1641 8.00024 16.8331 8.00024C21.5021 8.00024 25.2701 11.5905 25.2701 16.0393V18.6539C25.2701 19.9807 26.2531 20.9173 27.5227 20.9173C29.0381 20.9173 30.2668 19.7075 30.2668 16.0393C30.2668 8.97584 24.2462 3.23927 16.8331 3.23927C9.41998 3.23927 3.35843 8.97584 3.35843 16.0393C3.35843 23.1027 9.37902 28.8392 16.7921 28.8392C21.0926 28.8392 24.0414 26.81 24.0414 26.81L26.2531 29.2295C26.2531 29.2295 22.4851 32.0002 16.7921 32.0002C7.53598 32.0002 0 24.8197 0 16.0002C0 7.18073 7.53598 0.000244141 16.7921 0.000244141C26.0892 0.0392685 33.6252 7.21975 33.6252 16.0393ZM16.8331 20.9173C19.6591 20.9173 21.9526 18.7319 21.9526 16.0393C21.9526 13.3466 19.6591 11.1612 16.8331 11.1612C14.0071 11.1612 11.7135 13.3466 11.7135 16.0393C11.7135 18.7319 14.0071 20.9173 16.8331 20.9173Z"
          fill="#333333"/>
</svg>
