<svg width="35" height="35" viewBox="0 0 35 35" fill="none" xmlns="http://www.w3.org/2000/svg">
    <path fill-rule="evenodd" clip-rule="evenodd"
          d="M34.1527 17.0294C34.1527 26.4345 26.5284 34.0588 17.1233 34.0588C7.7182 34.0588 0.0938721 26.4345 0.0938721 17.0294C0.0938721 7.62433 7.7182 0 17.1233 0C26.5284 0 34.1527 7.62433 34.1527 17.0294ZM17.7335 12.5719C16.0772 13.2608 12.7668 14.6867 7.80237 16.8497C6.99622 17.1702 6.57393 17.4838 6.53549 17.7905C6.47051 18.3088 7.11952 18.5128 8.00329 18.7907C8.1235 18.8285 8.24806 18.8677 8.37575 18.9092C9.24525 19.1918 10.4149 19.5225 11.0229 19.5356C11.5745 19.5475 12.19 19.3202 12.8697 18.8535C17.5081 15.7224 19.9025 14.1398 20.0528 14.1057C20.1588 14.0816 20.3058 14.0514 20.4054 14.1399C20.5049 14.2284 20.4952 14.396 20.4846 14.441C20.4203 14.715 17.8727 17.0835 16.5544 18.3092C16.1434 18.6913 15.8519 18.9623 15.7923 19.0242C15.6588 19.1629 15.5227 19.294 15.3919 19.4201C14.5842 20.1988 13.9784 20.7827 15.4255 21.7363C16.1209 22.1946 16.6773 22.5735 17.2325 22.9516C17.8388 23.3645 18.4435 23.7763 19.2259 24.2892C19.4252 24.4198 19.6156 24.5555 19.801 24.6877C20.5066 25.1907 21.1404 25.6426 21.9236 25.5706C22.3786 25.5287 22.8487 25.1008 23.0874 23.8247C23.6515 20.8087 24.7604 14.2741 25.0167 11.5814C25.0392 11.3455 25.0109 11.0435 24.9883 10.911C24.9656 10.7785 24.9182 10.5896 24.7459 10.4498C24.5419 10.2843 24.2269 10.2494 24.086 10.2518C23.4455 10.2631 22.4628 10.6048 17.7335 12.5719Z"
          fill="#333333"/>
</svg>
