<svg width="35" height="35" viewBox="0 0 35 35" fill="none" xmlns="http://www.w3.org/2000/svg">
    <path fill-rule="evenodd" clip-rule="evenodd"
          d="M34.1177 17.0294C34.1177 26.4345 26.4933 34.0588 17.0882 34.0588C7.68317 34.0588 0.0588379 26.4345 0.0588379 17.0294C0.0588379 7.62433 7.68317 0 17.0882 0C26.4933 0 34.1177 7.62433 34.1177 17.0294ZM17.6985 12.5719C16.0421 13.2608 12.7318 14.6867 7.76733 16.8497C6.96119 17.1702 6.53889 17.4838 6.50045 17.7905C6.43548 18.3088 7.08448 18.5128 7.96825 18.7907C8.08847 18.8285 8.21302 18.8677 8.34072 18.9092C9.21021 19.1918 10.3798 19.5225 10.9879 19.5356C11.5394 19.5475 12.155 19.3202 12.8346 18.8535C17.4731 15.7224 19.8674 14.1398 20.0177 14.1057C20.1238 14.0816 20.2708 14.0514 20.3703 14.1399C20.4699 14.2284 20.4601 14.396 20.4496 14.441C20.3853 14.715 17.8377 17.0835 16.5193 18.3092C16.1084 18.6913 15.8168 18.9623 15.7572 19.0242C15.6237 19.1629 15.4877 19.294 15.3569 19.4201C14.5491 20.1988 13.9434 20.7827 15.3904 21.7363C16.0858 22.1946 16.6423 22.5735 17.1974 22.9516C17.8037 23.3645 18.4084 23.7763 19.1908 24.2892C19.3902 24.4198 19.5805 24.5555 19.766 24.6877C20.4715 25.1907 21.1054 25.6426 21.8885 25.5706C22.3436 25.5287 22.8136 25.1008 23.0523 23.8247C23.6165 20.8087 24.7254 14.2741 24.9817 11.5814C25.0041 11.3455 24.9759 11.0435 24.9532 10.911C24.9305 10.7785 24.8831 10.5896 24.7109 10.4498C24.5068 10.2843 24.1918 10.2494 24.051 10.2518C23.4105 10.2631 22.4278 10.6048 17.6985 12.5719Z"
          fill="#F2F2F2"/>
</svg>
